<?xml version="1.0" standalone="no"?>
<!DOCTYPE svg PUBLIC "-//W3C//DTD SVG 20010904//EN"
 "http://www.w3.org/TR/2001/REC-SVG-20010904/DTD/svg10.dtd">
<svg version="1.0" xmlns="http://www.w3.org/2000/svg"
 width="236.000000pt" height="265.000000pt" viewBox="0 0 236.000000 265.000000"
 preserveAspectRatio="xMidYMid meet">

<g transform="translate(0.000000,265.000000) scale(0.100000,-0.100000)"
fill="#000000" stroke="none">
<path d="M1002 2583 c-12 -2 -20 -9 -17 -14 4 -5 -7 -9 -22 -9 -16 0 -33 -4
-38 -8 -13 -11 -109 -40 -305 -92 -487 -129 -528 -148 -587 -268 l-28 -57 -3
-448 c-4 -587 9 -684 120 -902 141 -278 492 -566 894 -735 163 -69 232 -60
468 60 301 153 585 387 713 588 54 84 102 193 131 301 l27 96 0 530 0 530 -23
43 c-26 48 -73 97 -116 119 -38 20 -216 75 -346 108 -148 37 -182 46 -210 57
-13 5 -43 12 -65 14 -22 3 -57 14 -78 25 -42 21 -77 25 -77 8 0 -7 11 -9 28
-5 15 3 21 3 15 0 -18 -8 -16 -25 2 -18 8 4 15 2 15 -4 0 -15 -59 -23 -81 -12
-10 6 -19 8 -19 6 0 -10 61 -37 69 -31 5 3 12 -1 14 -7 4 -10 8 -10 15 1 7 9
12 10 16 2 4 -6 4 -11 -1 -11 -4 0 0 -5 10 -11 9 -5 21 -7 27 -4 5 3 20 -1 33
-9 12 -9 32 -17 42 -19 11 -2 34 -9 50 -16 17 -7 44 -15 60 -18 51 -10 327
-90 390 -114 61 -23 103 -58 133 -113 15 -28 17 -76 14 -501 -3 -495 -7 -549
-53 -683 -38 -111 -120 -252 -146 -252 -7 0 -13 -5 -13 -11 0 -5 5 -7 12 -3 7
5 8 3 3 -5 -4 -8 -11 -9 -16 -4 -14 14 22 90 64 137 10 11 15 26 12 34 -2 7 0
10 5 7 10 -6 15 20 12 58 -1 10 3 15 8 12 6 -3 10 1 10 9 0 10 -7 13 -25 10
-16 -3 -32 2 -42 11 -17 18 -34 16 -41 -5 -3 -9 2 -11 17 -7 11 3 21 2 21 -3
0 -15 -26 -18 -45 -4 -26 20 -30 18 -53 -18 -14 -22 -17 -35 -10 -39 6 -4 7
-12 4 -18 -4 -6 -11 -9 -15 -7 -4 3 -8 -1 -8 -9 0 -11 4 -12 13 -4 8 7 14 6
20 -2 4 -8 3 -9 -4 -5 -16 10 -15 0 4 -32 13 -21 13 -23 1 -9 -8 10 -19 19
-24 20 -4 0 -23 19 -40 40 -32 38 -33 40 -32 141 0 56 -3 115 -7 131 -9 37
-45 92 -73 111 -26 19 -26 40 -2 101 15 38 17 65 13 133 l-4 85 50 -52 c53
-56 88 -66 134 -42 18 10 19 17 13 78 -7 67 -6 69 38 152 91 170 102 296 31
370 -15 16 -92 60 -172 100 -80 39 -163 82 -184 95 -44 28 -79 30 -139 8 -41
-14 -48 -14 -99 3 -36 12 -82 18 -135 17 -88 -1 -240 -1 -380 0 -61 0 -106 -5
-141 -17 -46 -16 -54 -16 -93 -2 -60 21 -95 19 -139 -8 -20 -13 -103 -56 -183
-96 -160 -79 -206 -116 -220 -178 -16 -75 25 -223 88 -316 24 -34 25 -43 20
-117 -6 -90 1 -100 64 -100 25 0 43 11 84 53 l53 52 -2 -95 c0 -73 4 -106 19
-142 l19 -46 -36 -40 c-63 -69 -72 -95 -75 -217 -2 -60 -6 -120 -8 -131 -8
-36 -32 -36 -54 -1 -11 18 -21 26 -21 19 0 -7 -5 -10 -10 -7 -6 4 -17 2 -25
-5 -10 -9 -15 -7 -19 8 -4 11 -4 26 -1 34 3 8 0 28 -6 44 -8 19 -13 24 -16 14
-3 -11 -15 -14 -48 -12 -33 3 -45 0 -45 -9 0 -11 -3 -11 -11 1 -20 28 2 -32
42 -115 20 -44 39 -89 41 -100 4 -25 29 -56 40 -49 4 3 8 -2 8 -10 0 -82 -130
130 -178 289 -43 144 -47 198 -47 671 l0 451 30 49 c40 65 91 90 320 154 225
63 358 103 460 140 44 16 102 36 128 46 33 12 44 20 35 25 -7 5 -21 6 -32 3
-12 -4 -16 -2 -12 5 4 6 2 11 -3 11 -6 0 -11 5 -11 11 0 5 4 8 9 5 13 -8 42 4
35 15 -5 9 -12 9 -52 2z m553 -123 c3 -6 -1 -7 -9 -4 -18 7 -21 14 -7 14 6 0
13 -4 16 -10z m-370 -232 c28 0 80 4 118 9 37 5 69 8 70 6 2 -1 -9 -51 -24
-110 -16 -60 -28 -111 -29 -114 0 -13 -130 -91 -143 -86 -8 3 -39 21 -70 41
-61 39 -58 34 -96 188 -10 42 -17 79 -15 81 2 2 34 -1 71 -6 38 -5 91 -9 118
-9z m-225 5 c1 -5 5 -27 9 -51 l8 -43 -48 -20 c-26 -12 -55 -29 -64 -39 -17
-19 -18 -18 -51 8 -19 15 -34 32 -34 38 0 25 53 80 93 96 45 18 87 23 87 11z
m522 -5 c37 -11 109 -81 107 -104 0 -5 -16 -22 -35 -38 l-35 -29 -27 25 c-15
14 -44 32 -65 39 -37 13 -38 15 -32 49 14 78 16 79 87 58z m367 -150 c26 -50
52 -93 58 -95 6 -2 3 25 -8 63 -10 37 -16 70 -14 73 3 2 42 -13 87 -35 92 -44
118 -76 117 -139 0 -47 -32 -134 -43 -116 -4 6 -5 19 -2 29 13 43 14 101 2
118 -12 16 -14 14 -20 -19 -9 -47 -31 -60 -82 -44 -21 6 -45 17 -52 24 -15 15
-22 16 -40 5 -10 -7 -8 -33 8 -128 11 -65 22 -125 25 -133 4 -11 3 -11 -9 -2
-19 16 -32 58 -46 146 -28 171 -94 305 -157 315 -32 5 -82 55 -68 68 3 4 21
12 38 18 28 10 39 7 95 -22 60 -32 65 -37 111 -126z m-1106 141 c12 -7 24 -13
26 -15 11 -10 -45 -60 -72 -64 -66 -10 -121 -119 -162 -320 -9 -41 -22 -82
-30 -90 -13 -12 -13 -10 -5 20 6 19 13 77 15 127 l5 93 -59 -30 c-32 -17 -65
-30 -74 -30 -23 0 -47 28 -47 57 0 15 -5 23 -12 20 -9 -3 -13 -27 -12 -75 l0
-72 -18 28 c-22 33 -24 102 -4 140 13 25 119 90 172 106 l21 7 -18 -68 c-18
-65 -18 -86 0 -67 5 5 29 48 53 96 40 80 47 89 98 116 60 33 90 38 123 21z
m257 -164 c13 -54 18 -60 87 -111 40 -30 73 -56 73 -59 0 -5 -49 -55 -55 -55
-2 0 -1 7 2 17 4 9 2 14 -3 10 -6 -3 -18 5 -28 19 -20 25 -46 32 -46 12 0 -7
7 -32 17 -56 15 -41 15 -44 -4 -70 -20 -27 -83 -47 -68 -21 5 7 4 10 -1 6 -6
-3 -58 18 -117 47 -59 29 -107 49 -107 44 0 -4 -4 -8 -10 -8 -5 0 -9 3 -9 8 3
19 -2 23 -16 12 -8 -7 -15 -23 -15 -37 0 -14 -4 -21 -10 -18 -20 12 -9 42 33
88 48 52 71 57 140 33 46 -17 49 -3 5 20 -18 9 -34 18 -36 19 -2 2 7 26 19 55
18 42 31 57 72 80 28 16 54 27 57 25 4 -2 13 -29 20 -60z m444 32 c47 -26 74
-60 82 -104 5 -28 3 -33 -26 -48 -42 -22 -32 -29 20 -15 24 6 54 9 67 5 36 -9
93 -75 93 -107 0 -33 -7 -34 -40 -8 -14 11 -30 20 -37 20 -7 0 -60 -22 -119
-50 -59 -27 -115 -50 -125 -50 -27 0 -52 44 -46 77 18 83 19 93 9 93 -6 0 -14
-5 -17 -11 -5 -7 -14 -4 -28 8 -11 10 -17 12 -13 6 4 -8 1 -13 -8 -13 -9 0
-16 -7 -16 -15 0 -8 -7 -15 -15 -15 -34 0 -14 40 38 74 64 43 97 73 97 89 0
29 22 87 33 87 7 0 30 -10 51 -23z m-644 -16 l34 -29 -18 -41 c-11 -22 -22
-38 -26 -36 -4 2 -24 -4 -44 -15 l-38 -19 6 40 c3 21 3 39 1 39 -3 0 -18 -19
-35 -42 -16 -22 -30 -36 -30 -30 0 6 10 23 23 39 13 15 36 49 51 76 15 26 30
47 34 47 4 0 23 -13 42 -29z m836 -3 c10 -18 32 -55 51 -82 18 -26 33 -53 33
-59 0 -7 -12 6 -26 28 -39 58 -47 65 -42 33 8 -42 -3 -51 -44 -34 -19 9 -38
13 -40 10 -3 -2 -12 14 -21 36 l-15 40 36 29 c21 17 40 30 44 31 4 0 15 -15
24 -32z m-785 -322 c30 -13 62 -30 72 -38 17 -13 17 -15 3 -27 -27 -23 -97
-17 -118 9 -15 19 -26 80 -14 80 2 0 28 -11 57 -24z m729 -4 c0 -48 -25 -72
-75 -72 -81 0 -98 22 -42 55 17 11 37 20 44 21 6 1 19 7 30 13 30 17 43 13 43
-17z m-816 -72 l39 -50 71 0 c91 0 76 -18 -18 -23 -60 -3 -71 -6 -79 -25 -6
-12 -14 -22 -18 -22 -4 0 -28 26 -53 58 l-45 59 27 26 c15 15 29 27 32 27 3
-1 23 -23 44 -50z m928 -15 c-16 -27 -77 -104 -83 -105 -4 0 -12 14 -19 30
-11 26 -14 28 -24 15 -6 -8 -30 -17 -54 -19 -34 -4 -48 0 -70 19 l-27 24 71 1
71 0 44 49 44 49 27 -25 c16 -15 24 -31 20 -38z m-395 14 c38 -19 119 -97 109
-106 -2 -2 -19 5 -37 16 -55 34 -51 25 23 -46 38 -38 81 -86 94 -108 23 -40
91 -341 80 -353 -4 -3 -6 0 -6 7 0 6 -12 0 -27 -14 -15 -14 -37 -25 -49 -25
-24 0 -66 30 -104 74 -51 59 -51 60 -35 113 8 26 19 81 25 120 12 86 2 120
-43 154 -28 21 -45 24 -130 27 -111 4 -144 -5 -182 -50 -29 -35 -33 -87 -9
-143 9 -23 11 -34 3 -30 -7 5 -9 1 -6 -11 26 -85 29 -112 14 -140 -22 -41 -87
-101 -118 -109 -19 -5 -34 0 -56 19 -17 14 -34 22 -38 18 -4 -4 -5 7 -1 23 3
17 15 81 27 144 11 62 27 128 34 145 14 34 86 119 143 169 46 41 32 45 -23 8
l-47 -31 20 27 c33 46 95 100 127 111 54 19 164 14 212 -9z m-592 -102 c36
-43 50 -66 35 -56 -14 9 -44 39 -67 67 l-42 52 -7 -35 c-3 -19 -3 -46 0 -59 4
-16 -1 -31 -15 -47 l-20 -24 4 74 c4 57 9 78 23 88 10 7 20 13 23 12 3 0 33
-33 66 -72z m1047 61 c11 -9 18 -38 23 -93 6 -79 6 -80 -12 -55 -10 14 -19 36
-21 50 -4 32 -11 38 -23 20 -9 -13 -10 -13 -8 0 1 8 1 21 0 29 -2 21 -31 -7
-31 -31 0 -11 -5 -16 -10 -13 -6 4 -19 -4 -29 -17 -11 -13 -22 -20 -25 -17 -6
6 103 139 114 139 3 0 13 -6 22 -12z m-1065 -254 c17 -159 18 -152 -11 -125
-25 24 -86 130 -86 150 0 19 62 92 74 88 6 -2 16 -53 23 -113z m617 95 c30
-23 35 -45 9 -34 -20 8 -242 13 -249 6 -6 -7 -34 -10 -34 -5 0 3 12 16 26 29
25 23 35 25 124 25 83 0 101 -3 124 -21z m434 -10 c15 -18 31 -38 35 -45 9
-16 -38 -114 -83 -169 -28 -34 -32 -36 -27 -15 4 14 7 35 7 48 0 13 3 21 8 19
4 -3 6 27 5 67 -1 82 5 126 19 126 5 0 21 -14 36 -31z m-966 -83 c8 -14 7 -17
-4 -11 -28 16 -48 39 -48 53 0 12 4 11 21 -4 11 -10 25 -27 31 -38z m868 14
c-7 -16 -16 -30 -21 -30 -5 0 -9 -10 -9 -22 l0 -22 -16 22 c-15 22 -15 25 3
45 23 28 47 46 52 42 2 -3 -2 -18 -9 -35z m-496 -54 c-8 -21 -52 -32 -67 -17
-8 8 -4 11 16 11 14 0 32 6 39 14 16 17 21 14 12 -8z m123 -6 c13 0 23 -4 23
-10 0 -16 -37 -12 -54 6 -9 8 -16 18 -16 22 0 3 5 1 12 -6 7 -7 22 -12 35 -12z
m-617 -249 c-1 -88 -2 -94 -16 -76 -20 26 -17 199 4 183 8 -7 12 -42 12 -107z
m1081 -76 c-16 -30 -16 -30 -19 60 -2 59 2 98 10 114 12 22 14 17 19 -60 6
-68 4 -90 -10 -114z m105 128 c42 -100 -25 -235 -174 -351 -59 -45 -87 -55
-103 -36 -14 17 -11 20 46 51 17 9 47 31 68 49 20 19 47 34 58 34 17 0 19 3
10 14 -8 10 -9 16 -1 21 6 3 25 34 42 68 27 52 32 72 31 125 -1 34 0 62 3 62
3 0 12 -17 20 -37z m-1253 -149 c14 -27 33 -56 41 -63 12 -11 14 -17 5 -27 -9
-11 -7 -14 10 -14 11 0 38 -15 58 -34 21 -18 57 -45 81 -60 44 -28 48 -46 8
-46 -42 0 -161 99 -212 176 -54 81 -67 146 -42 215 l13 34 6 -65 c3 -41 15
-84 32 -116z m646 21 c2 -3 -9 -5 -25 -5 -22 0 -26 -3 -14 -10 12 -8 9 -10
-12 -10 -20 0 -26 4 -22 15 5 11 1 14 -12 9 -15 -5 -16 -4 -5 4 13 9 79 7 90
-3z m-144 -51 c22 -16 135 -19 163 -5 36 18 92 32 103 25 7 -4 -3 -16 -27 -30
-34 -21 -52 -24 -139 -24 -82 0 -106 4 -132 20 -38 23 -45 45 -10 34 12 -4 31
-13 42 -20z m-780 6 c3 -5 1 -10 -4 -10 -6 0 -11 5 -11 10 0 6 2 10 4 10 3 0
8 -4 11 -10z m1838 -30 c-3 -12 -8 -19 -11 -16 -5 6 5 36 12 36 2 0 2 -9 -1
-20z m-308 -143 c-17 -40 -30 -51 -17 -14 5 12 7 28 6 35 -1 6 -2 19 -3 29 -1
15 -3 14 -21 -2 -30 -27 -24 -4 13 52 l32 48 3 -55 c2 -34 -3 -70 -13 -93z
m-1251 55 c6 -10 1 -11 -19 -6 -27 7 -27 6 -23 -35 3 -36 2 -40 -9 -25 -8 11
-13 47 -13 87 l0 70 28 -39 c15 -21 32 -45 36 -52z m938 13 c-14 -38 -24 -50
-45 -56 -16 -4 -25 -3 -21 2 3 5 -2 9 -11 9 -15 0 -5 12 75 83 8 8 16 13 17
12 1 0 -5 -23 -15 -50z m505 10 c0 -8 -4 -12 -9 -9 -5 3 -6 10 -3 15 9 13 12
11 12 -6z m-1119 -31 c20 -20 32 -33 25 -30 -6 4 -14 2 -17 -3 -7 -11 -42 -3
-54 13 -5 6 -13 21 -16 34 -11 34 18 28 62 -14z m-172 -131 c-10 -10 -116 72
-116 89 0 5 27 -12 61 -37 33 -26 58 -49 55 -52z m988 56 c-21 -21 -134 -81
-134 -71 0 4 23 20 51 37 27 16 60 40 72 53 13 14 23 19 25 12 3 -7 -4 -20
-14 -31z m253 -77 l38 -73 -65 -61 c-36 -34 -90 -79 -119 -100 l-55 -38 -21
42 -21 43 62 62 c35 34 68 71 74 83 11 20 10 21 -9 11 -26 -14 -33 -1 -14 24
11 14 17 16 20 8 7 -19 21 -16 33 8 8 15 8 24 0 34 -7 9 -9 27 -5 46 l7 32 19
-24 c10 -13 36 -57 56 -97z m-1506 86 c1 -23 0 -29 -8 -59 -2 -8 12 -40 33
-70 44 -65 52 -99 21 -91 -13 3 -18 1 -13 -6 3 -6 1 -14 -5 -18 -8 -5 -9 -3
-4 6 6 10 4 12 -9 7 -10 -4 -15 -3 -11 3 5 8 -25 13 -51 9 -11 -2 -64 55 -64
68 0 29 85 173 101 173 5 0 10 -10 10 -22z m532 -2 c4 -10 0 -12 -15 -8 -15 4
-17 7 -6 13 17 11 15 11 21 -5z m397 -1 c0 -1 -9 -5 -19 -8 -13 -3 -18 -1 -14
9 4 10 33 10 33 -1z m123 -59 c-10 -7 -40 -20 -68 -30 -43 -14 -51 -14 -64 -2
-13 13 -11 17 15 27 84 33 100 36 117 27 18 -9 18 -10 0 -22z m-829 -10 c21
-18 37 -39 35 -45 -6 -16 -89 44 -89 64 0 22 10 18 54 -19z m161 24 c-3 -5
-12 -10 -18 -10 -7 0 -6 4 3 10 19 12 23 12 15 0z m875 -5 c0 -8 -19 -29 -42
-46 -37 -26 -43 -28 -47 -13 -1 9 3 21 11 25 8 5 26 17 39 28 29 24 39 26 39
6z m-815 -5 c8 7 15 8 15 2 0 -20 -27 -33 -51 -23 -13 5 -18 10 -11 10 8 1 10
6 6 14 -5 8 -2 8 9 -2 14 -11 20 -11 32 -1z m72 -24 c-4 -13 -67 -18 -67 -5 0
5 7 9 16 9 8 0 13 4 10 9 -3 4 6 6 20 3 14 -2 23 -10 21 -16z m348 -25 c17
-35 22 -221 5 -221 -6 0 -10 31 -10 73 -1 65 -2 70 -15 53 -14 -19 -15 -19
-15 7 0 30 9 29 -135 28 -74 0 -101 -3 -103 -13 -2 -7 -8 -22 -13 -33 -6 -11
-14 -43 -18 -70 -8 -43 -9 -36 -10 55 -2 150 -5 147 163 149 l135 2 16 -30z
m-470 -8 c43 -20 46 -38 6 -30 -29 6 -30 5 -39 -46 l-10 -52 -1 73 c0 39 1 72
4 72 2 0 20 -8 40 -17z m685 -53 c0 -40 -4 -70 -10 -70 -5 0 -10 23 -10 50 0
28 -4 50 -8 50 -5 0 -31 -7 -57 -15 -27 -8 -51 -12 -54 -10 -4 4 116 63 132
64 4 1 7 -30 7 -69z m-69 -33 c-13 -13 -26 -3 -16 12 3 6 11 8 17 5 6 -4 6
-10 -1 -17z m-581 3 c0 -5 -4 -10 -10 -10 -5 0 -10 5 -10 10 0 6 5 10 10 10 6
0 10 -4 10 -10z m370 -40 l0 -40 -85 0 -85 0 0 40 0 40 85 0 85 0 0 -40z m380
-117 c32 -59 38 -78 28 -85 -120 -76 -259 -147 -235 -121 26 29 21 39 -19 39
-19 0 -40 6 -46 15 -8 12 -9 11 -5 -3 3 -9 -1 -19 -9 -22 -9 -3 -12 -1 -9 4 3
6 4 10 1 10 -2 0 -13 3 -23 6 -15 5 -15 4 -3 -5 13 -9 12 -11 -5 -12 -11 -1
-24 -1 -29 0 -24 5 -46 -34 -46 -79 0 -33 -5 -50 -15 -54 -12 -4 -15 6 -15 64
l0 69 54 31 c41 23 58 39 66 64 15 47 46 71 115 91 32 9 80 27 105 40 25 13
46 24 47 25 1 0 20 -35 43 -77z m-822 43 c31 -13 76 -29 98 -35 55 -15 91 -44
99 -81 5 -22 22 -41 66 -71 l59 -40 -1 -60 c-1 -49 -4 -59 -18 -57 -12 2 -17
17 -19 60 -3 57 -3 57 -37 64 -19 3 -35 10 -35 15 0 5 -7 5 -17 2 -9 -4 -14
-2 -11 3 4 5 -21 10 -55 12 -34 2 -67 8 -73 13 -23 19 -11 -27 14 -53 30 -32
19 -37 -18 -8 -14 11 -28 20 -32 20 -5 0 -157 87 -166 95 -6 5 69 145 78 145
6 0 36 -11 68 -24z m352 -112 c36 1 70 3 77 6 6 3 13 1 15 -4 1 -5 -18 -20
-43 -34 l-46 -26 -46 27 c-34 20 -45 32 -40 44 6 14 7 14 12 1 5 -11 22 -14
71 -14z"/>
<path d="M745 1870 c-3 -6 1 -7 9 -4 18 7 21 14 7 14 -6 0 -13 -4 -16 -10z"/>
<path d="M870 1239 c0 -24 23 -21 28 4 2 10 -3 17 -12 17 -10 0 -16 -9 -16
-21z"/>
<path d="M1472 1246 c1 -10 8 -17 13 -17 15 1 12 24 -3 29 -9 3 -13 -2 -10
-12z"/>
<path d="M937 1214 c-14 -14 -7 -35 11 -32 9 2 17 10 17 17 0 16 -18 25 -28
15z"/>
<path d="M1400 1200 c0 -19 20 -27 33 -13 8 7 -11 33 -24 33 -5 0 -9 -9 -9
-20z"/>
<path d="M864 1129 c-10 -17 13 -36 27 -22 12 12 4 33 -11 33 -5 0 -12 -5 -16
-11z"/>
<path d="M1475 1130 c-11 -17 5 -32 21 -19 7 6 11 15 8 20 -7 12 -21 11 -29
-1z"/>
<path d="M1716 1615 c-3 -8 -1 -15 4 -15 6 0 10 7 10 15 0 8 -2 15 -4 15 -2 0
-6 -7 -10 -15z"/>
<path d="M646 1361 c-4 -6 3 -28 14 -51 20 -40 39 -56 25 -22 -4 9 -9 28 -11
42 -6 31 -19 45 -28 31z"/>
<path d="M1715 1372 c-11 -23 -16 -52 -10 -52 10 0 34 59 26 64 -5 3 -12 -2
-16 -12z"/>
<path d="M1783 509 c-15 -15 -5 -39 17 -39 19 0 34 25 24 41 -7 12 -28 11 -41
-2z"/>
<path d="M958 683 c7 -3 16 -2 19 1 4 3 -2 6 -13 5 -11 0 -14 -3 -6 -6z"/>
<path d="M1560 381 c0 -15 6 -21 21 -21 25 0 22 33 -4 38 -12 2 -17 -3 -17
-17z"/>
<path d="M767 386 c-7 -18 1 -26 25 -26 13 0 18 6 16 17 -4 22 -34 29 -41 9z"/>
<path d="M1315 2580 c-4 -6 1 -7 11 -3 12 4 15 3 10 -5 -5 -8 -2 -10 8 -6 9 3
13 10 10 15 -7 12 -31 11 -39 -1z"/>
<path d="M1102 2561 c-11 -7 -11 -9 0 -14 9 -3 15 1 15 9 0 8 -1 14 -1 14 -1
0 -7 -4 -14 -9z"/>
<path d="M1260 2544 c0 -8 62 -34 69 -29 5 3 11 0 13 -7 3 -7 7 -8 11 -2 3 5
-3 16 -15 23 -11 7 -17 8 -13 2 3 -6 1 -11 -4 -11 -6 0 -11 4 -11 9 0 5 -11
11 -25 13 -14 3 -25 4 -25 2z"/>
<path d="M180 1051 c0 -6 4 -13 10 -16 6 -3 7 1 4 9 -7 18 -14 21 -14 7z"/>
<path d="M320 1014 c0 -10 5 -26 10 -34 8 -11 9 -7 4 15 -8 37 -14 45 -14 19z"/>
</g>
</svg>
